<?xml version="1.0" encoding="UTF-8" standalone="no"?>
<svg
   width="32"
   height="32"
   viewBox="0 0 8.4666667 8.4666667"
   version="1.1"
   id="svg8"
   sodipodi:docname="messengerfix.svg"
   inkscape:export-filename="..\DEV\SidebarMessengerFix\extension\icons\icon48.png"
   inkscape:export-xdpi="144"
   inkscape:export-ydpi="144"
   inkscape:version="1.2.2 (732a01da63, 2022-12-09)"
   xmlns:inkscape="http://www.inkscape.org/namespaces/inkscape"
   xmlns:sodipodi="http://sodipodi.sourceforge.net/DTD/sodipodi-0.dtd"
   xmlns:xlink="http://www.w3.org/1999/xlink"
   xmlns="http://www.w3.org/2000/svg"
   xmlns:svg="http://www.w3.org/2000/svg"
   xmlns:rdf="http://www.w3.org/1999/02/22-rdf-syntax-ns#"
   xmlns:cc="http://creativecommons.org/ns#"
   xmlns:dc="http://purl.org/dc/elements/1.1/"
   xmlns:osb="http://www.openswatchbook.org/uri/2009/osb">
  <defs
     id="defs2">
    <linearGradient
       id="linearGradient2940"
       osb:paint="solid">
      <stop
         style="stop-color:#0000ff;stop-opacity:1;"
         offset="0"
         id="stop2938" />
    </linearGradient>
    <linearGradient
       id="linearGradient867"
       osb:paint="gradient">
      <stop
         style="stop-color:#ff0000;stop-opacity:1"
         offset="0"
         id="stop863" />
      <stop
         style="stop-color:#0000ff;stop-opacity:1"
         offset="1"
         id="stop865" />
    </linearGradient>
    <linearGradient
       inkscape:collect="always"
       xlink:href="#linearGradient867"
       id="linearGradient2942"
       x1="10.181734"
       y1="-1.4174107"
       x2="-1.6063988"
       y2="10.748698"
       gradientUnits="userSpaceOnUse" />
  </defs>
  <sodipodi:namedview
     id="base"
     pagecolor="#ffffff"
     bordercolor="#666666"
     borderopacity="1.0"
     inkscape:pageopacity="0.0"
     inkscape:pageshadow="2"
     inkscape:zoom="8"
     inkscape:cx="0.1875"
     inkscape:cy="27.375"
     inkscape:document-units="mm"
     inkscape:current-layer="layer2"
     inkscape:document-rotation="0"
     showgrid="false"
     units="px"
     inkscape:window-width="2560"
     inkscape:window-height="1369"
     inkscape:window-x="-8"
     inkscape:window-y="-8"
     inkscape:window-maximized="1"
     inkscape:showpageshadow="0"
     inkscape:pagecheckerboard="0"
     inkscape:deskcolor="#d1d1d1" />
  <metadata
     id="metadata5">
    <rdf:RDF>
      <cc:Work
         rdf:about="">
        <dc:format>image/svg+xml</dc:format>
        <dc:type
           rdf:resource="http://purl.org/dc/dcmitype/StillImage" />
        <dc:title />
      </cc:Work>
    </rdf:RDF>
  </metadata>
  <g
     inkscape:groupmode="layer"
     id="layer2"
     inkscape:label="Warstwa 2">
    <rect
       style="mix-blend-mode:normal;fill:url(#linearGradient2942);fill-opacity:1;fill-rule:nonzero;stroke-width:0.323008;stroke-miterlimit:4;stroke-dasharray:none"
       id="rect849"
       width="8.4666662"
       height="8.4666662"
       x="0"
       y="-2.7755576e-17"
       ry="1.2194172" />
    <path
       style="fill:#ffffff;fill-opacity:0;fill-rule:nonzero;stroke-width:0.0447132;stroke-miterlimit:4;stroke-dasharray:none"
       d="m 20.128875,11.875494 0.898026,-0.464435 1.361607,-0.02948 c 0.748884,-0.01621 1.366858,-0.02648 1.373275,-0.02281 0.0064,0.0037 -0.154598,0.205664 -0.357812,0.448875 l -0.36948,0.442201 -0.936831,0.02983 c -0.515257,0.0164 -1.371076,0.03667 -1.901821,0.04504 l -0.964991,0.01522 z"
       id="path2882"
       transform="scale(0.26458333)" />
  </g>
  <g
     inkscape:label="Warstwa 1"
     inkscape:groupmode="layer"
     id="layer1">
    <text
       xml:space="preserve"
       style="font-style:normal;font-weight:normal;font-size:10.5833px;line-height:1.25;font-family:sans-serif;display:inline;fill:#000000;fill-opacity:1;stroke:none;stroke-width:0.264583"
       x="0.57877606"
       y="3.0946803"
       id="text12"><tspan
         sodipodi:role="line"
         id="tspan10"
         x="0"
         y="0"
         style="stroke-width:0.264583" /></text>
    <path
       style="display:none;fill:#ffffff;fill-opacity:0;stroke:#ffffff;stroke-width:0.265;stroke-linecap:butt;stroke-linejoin:miter;stroke-miterlimit:4;stroke-dasharray:none;stroke-opacity:1"
       d="M 0.61306039,5.5345448 3.1743527,3.0135917 4.8467258,4.0863378 7.9353432,2.2269115 5.2384528,6.0530385 3.3099507,4.6227108 Z"
       id="path847" />
    <path
       style="fill:#ffffff;fill-opacity:0;fill-rule:nonzero;stroke-width:0.0447132;stroke-miterlimit:4;stroke-dasharray:none"
       d="m 16.926489,15.746193 -2.939698,-1.838506 -3.860088,1.102719 C 8.0036541,15.616901 6.247264,16.101165 6.2236134,16.086548 6.1999629,16.071931 6.0932583,15.885729 5.9864921,15.672766 L 5.7923718,15.28556 9.6991636,12.045114 13.605955,8.8046678 14.838749,9.471479 c 0.678037,0.3667461 1.807881,0.977196 2.510764,1.356555 l 1.27797,0.689744 4.451895,-2.2612437 c 2.448543,-1.243684 4.466846,-2.2441473 4.485119,-2.2232517 0.01827,0.020895 0.149225,0.1837594 0.291005,0.3619198 0.228388,0.2869933 0.25082,0.3327895 0.196733,0.4016458 -0.09329,0.1187682 -7.958552,9.5290748 -8.079824,9.6670218 l -0.106225,0.120829 z m 5.839456,-3.093517 c 1.683035,-2.012819 3.060063,-3.6761123 3.060063,-3.6962078 0,-0.020095 -0.446987,0.1928031 -0.993304,0.4731078 -0.994221,0.510116 -3.512374,1.787992 -5.284202,2.68155 l -0.942684,0.47541 -2.441191,-1.319425 c -2.416751,-1.3062166 -2.442202,-1.3186282 -2.54229,-1.239774 -0.676534,0.533011 -5.4208299,4.502437 -5.392601,4.511847 0.020985,0.007 1.3118335,-0.351002 2.868552,-0.795549 1.556719,-0.444547 2.881194,-0.818484 2.943278,-0.83097 0.09084,-0.01827 0.648819,0.313068 2.857143,1.696609 1.509345,0.945621 2.758418,1.715658 2.775719,1.711192 0.0173,-0.0045 1.408484,-1.654972 3.091517,-3.66779 z"
       id="path2874"
       transform="scale(0.26458333)" />
    <path
       style="fill:#ffffff;fill-opacity:0;fill-rule:nonzero;stroke-width:0.0447132;stroke-miterlimit:4;stroke-dasharray:none"
       d="m 23.013508,10.423037 0.915179,-0.4703867 0.535714,-0.029784 c 0.522538,-0.029052 0.533978,-0.027703 0.465129,0.054848 -0.03882,0.046548 -0.216766,0.2604127 -0.395432,0.4752567 l -0.324847,0.390625 -0.809925,3.88e-4 c -0.445459,2.13e-4 -0.920416,0.01142 -1.055461,0.02491 -0.239777,0.02395 -0.22407,0.01349 0.669643,-0.445861 z"
       id="path2876"
       transform="scale(0.26458333)" />
    <path
       style="fill:#ffffff;fill-opacity:0;fill-rule:nonzero;stroke-width:0.0447132;stroke-miterlimit:4;stroke-dasharray:none"
       d="m 22.381269,14.673929 c 0.14875,-0.179228 0.326745,-0.389803 0.395543,-0.467945 l 0.125089,-0.142077 3.660714,-0.06974 c 2.013393,-0.03836 4.057478,-0.08245 4.542411,-0.09799 l 0.881696,-0.02825 v 0.447479 0.447478 l -0.63616,0.02672 c -0.349889,0.01469 -2.293527,0.05661 -4.319197,0.09314 -2.02567,0.03653 -3.961477,0.07781 -4.301793,0.09174 l -0.618758,0.02532 z"
       id="path2878"
       transform="scale(0.26458333)" />
    <path
       style="display:inline;fill:#ffffff;stroke-width:1.00157;stroke-miterlimit:4;stroke-dasharray:none"
       d="m 15.913583,21.073256 c -2.030309,-1.509054 -2.485901,-2.190852 -3.77167,-2.346545 -1.145145,5.68e-4 -2.8562606,0.296959 -4.7369881,0.940963 0,0 -4.403059,1.640232 -4.7953839,1.57492 -0.3923249,-0.06531 -0.5248333,-0.350636 -0.5130373,-0.630235 0.011796,-0.279598 0.2112602,-1.128312 4.572853,-5.306169 2.748677,-2.632886 4.4895883,-4.27972 5.4843273,-4.338135 0.775985,0.03535 1.663083,0.40608 3.346263,1.486181 1.683146,1.080079 1.824811,1.136726 2.770813,1.27312 0.933273,0.134559 1.869664,-0.351722 5.545364,-2.561876 1.816323,-0.937578 5.422578,-3.4316213 5.999756,-3.0412457 0.577178,0.3903756 0.505504,0.5823465 0.449276,0.7366938 -0.643794,1.7672459 -2.750294,4.7650709 -2.750294,4.7650709 -1.552016,2.685601 -4.073056,5.772237 -5.155046,7.308774 -1.081989,1.536537 -2.013974,2.480025 -2.782882,2.306711 -1.222035,-0.09515 -1.633042,-0.659174 -3.663351,-2.168228 z m 6.424436,-3.337572 c -14.8920127,-11.8237893 -7.446006,-5.911895 0,0 z"
       id="path865"
       transform="scale(0.26458333)"
       sodipodi:nodetypes="scszzscssczssscscc"
       inkscape:label="path865" />
  </g>
</svg>
