<?xml version="1.0" encoding="UTF-8" standalone="no"?>
<svg
   xmlns:osb="http://www.openswatchbook.org/uri/2009/osb"
   xmlns:dc="http://purl.org/dc/elements/1.1/"
   xmlns:cc="http://creativecommons.org/ns#"
   xmlns:rdf="http://www.w3.org/1999/02/22-rdf-syntax-ns#"
   xmlns:svg="http://www.w3.org/2000/svg"
   xmlns="http://www.w3.org/2000/svg"
   xmlns:xlink="http://www.w3.org/1999/xlink"
   xmlns:sodipodi="http://sodipodi.sourceforge.net/DTD/sodipodi-0.dtd"
   xmlns:inkscape="http://www.inkscape.org/namespaces/inkscape"
   width="32"
   height="32"
   viewBox="0 0 8.4666667 8.4666667"
   version="1.1"
   id="svg8"
   sodipodi:docname="messengerfix.svg"
   inkscape:export-filename="C:\Users\kpxdi\OneDrive\PC\Pulpit\SidebarMessegerFix\extension\icons\icon64.png"
   inkscape:export-xdpi="192.00002"
   inkscape:export-ydpi="192.00002"
   inkscape:version="1.0.2 (e86c870879, 2021-01-15, custom)">
  <defs
     id="defs2">
    <linearGradient
       id="linearGradient2940"
       osb:paint="solid">
      <stop
         style="stop-color:#0000ff;stop-opacity:1;"
         offset="0"
         id="stop2938" />
    </linearGradient>
    <linearGradient
       id="linearGradient867"
       osb:paint="gradient">
      <stop
         style="stop-color:#ff0000;stop-opacity:1"
         offset="0"
         id="stop863" />
      <stop
         style="stop-color:#0000ff;stop-opacity:1"
         offset="1"
         id="stop865" />
    </linearGradient>
    <linearGradient
       inkscape:collect="always"
       xlink:href="#linearGradient867"
       id="linearGradient2942"
       x1="10.181734"
       y1="-1.4174107"
       x2="-1.6063988"
       y2="10.748698"
       gradientUnits="userSpaceOnUse" />
  </defs>
  <sodipodi:namedview
     id="base"
     pagecolor="#ffffff"
     bordercolor="#666666"
     borderopacity="1.0"
     inkscape:pageopacity="0.0"
     inkscape:pageshadow="2"
     inkscape:zoom="15.839192"
     inkscape:cx="7.1334452"
     inkscape:cy="11.766703"
     inkscape:document-units="mm"
     inkscape:current-layer="layer1"
     inkscape:document-rotation="0"
     showgrid="false"
     units="px"
     inkscape:window-width="2560"
     inkscape:window-height="1377"
     inkscape:window-x="1672"
     inkscape:window-y="32"
     inkscape:window-maximized="1" />
  <metadata
     id="metadata5">
    <rdf:RDF>
      <cc:Work
         rdf:about="">
        <dc:format>image/svg+xml</dc:format>
        <dc:type
           rdf:resource="http://purl.org/dc/dcmitype/StillImage" />
        <dc:title />
      </cc:Work>
    </rdf:RDF>
  </metadata>
  <g
     inkscape:groupmode="layer"
     id="layer2"
     inkscape:label="Warstwa 2">
    <rect
       style="mix-blend-mode:normal;fill:url(#linearGradient2942);fill-opacity:1;fill-rule:nonzero;stroke-width:0.323008;stroke-miterlimit:4;stroke-dasharray:none"
       id="rect849"
       width="8.4666662"
       height="8.4666662"
       x="0"
       y="-2.7755576e-17"
       ry="1.2194172" />
    <path
       style="fill:#ffffff;fill-opacity:0;fill-rule:nonzero;stroke-width:0.0447132;stroke-miterlimit:4;stroke-dasharray:none"
       d="m 20.128875,11.875494 0.898026,-0.464435 1.361607,-0.02948 c 0.748884,-0.01621 1.366858,-0.02648 1.373275,-0.02281 0.0064,0.0037 -0.154598,0.205664 -0.357812,0.448875 l -0.36948,0.442201 -0.936831,0.02983 c -0.515257,0.0164 -1.371076,0.03667 -1.901821,0.04504 l -0.964991,0.01522 z"
       id="path2882"
       transform="scale(0.26458333)" />
  </g>
  <g
     inkscape:label="Warstwa 1"
     inkscape:groupmode="layer"
     id="layer1">
    <text
       xml:space="preserve"
       style="font-style:normal;font-weight:normal;font-size:10.5833px;line-height:1.25;font-family:sans-serif;fill:#000000;fill-opacity:1;stroke:none;stroke-width:0.264583"
       x="0.57877606"
       y="3.0946803"
       id="text12"><tspan
         sodipodi:role="line"
         id="tspan10"
         x="0.57877606"
         y="3.0946803"
         style="stroke-width:0.264583" /></text>
    <path
       style="fill:#ffffff;fill-opacity:0;stroke:#ffffff;stroke-width:0.265;stroke-linecap:butt;stroke-linejoin:miter;stroke-miterlimit:4;stroke-dasharray:none;stroke-opacity:1"
       d="M 0.61306039,5.5345448 3.1743527,3.0135917 4.8467258,4.0863378 7.9353432,2.2269115 5.2384528,6.0530385 3.3099507,4.6227108 Z"
       id="path847" />
    <path
       style="fill:#ffffff;fill-opacity:0;fill-rule:nonzero;stroke-width:0.0447132;stroke-miterlimit:4;stroke-dasharray:none"
       d="m 16.926489,15.746193 -2.939698,-1.838506 -3.860088,1.102719 C 8.0036541,15.616901 6.247264,16.101165 6.2236134,16.086548 6.1999629,16.071931 6.0932583,15.885729 5.9864921,15.672766 L 5.7923718,15.28556 9.6991636,12.045114 13.605955,8.8046678 14.838749,9.471479 c 0.678037,0.3667461 1.807881,0.977196 2.510764,1.356555 l 1.27797,0.689744 4.451895,-2.2612437 c 2.448543,-1.243684 4.466846,-2.2441473 4.485119,-2.2232517 0.01827,0.020895 0.149225,0.1837594 0.291005,0.3619198 0.228388,0.2869933 0.25082,0.3327895 0.196733,0.4016458 -0.09329,0.1187682 -7.958552,9.5290748 -8.079824,9.6670218 l -0.106225,0.120829 z m 5.839456,-3.093517 c 1.683035,-2.012819 3.060063,-3.6761123 3.060063,-3.6962078 0,-0.020095 -0.446987,0.1928031 -0.993304,0.4731078 -0.994221,0.510116 -3.512374,1.787992 -5.284202,2.68155 l -0.942684,0.47541 -2.441191,-1.319425 c -2.416751,-1.3062166 -2.442202,-1.3186282 -2.54229,-1.239774 -0.676534,0.533011 -5.4208299,4.502437 -5.392601,4.511847 0.020985,0.007 1.3118335,-0.351002 2.868552,-0.795549 1.556719,-0.444547 2.881194,-0.818484 2.943278,-0.83097 0.09084,-0.01827 0.648819,0.313068 2.857143,1.696609 1.509345,0.945621 2.758418,1.715658 2.775719,1.711192 0.0173,-0.0045 1.408484,-1.654972 3.091517,-3.66779 z"
       id="path2874"
       transform="scale(0.26458333)" />
    <path
       style="fill:#ffffff;fill-opacity:0;fill-rule:nonzero;stroke-width:0.0447132;stroke-miterlimit:4;stroke-dasharray:none"
       d="m 23.013508,10.423037 0.915179,-0.4703867 0.535714,-0.029784 c 0.522538,-0.029052 0.533978,-0.027703 0.465129,0.054848 -0.03882,0.046548 -0.216766,0.2604127 -0.395432,0.4752567 l -0.324847,0.390625 -0.809925,3.88e-4 c -0.445459,2.13e-4 -0.920416,0.01142 -1.055461,0.02491 -0.239777,0.02395 -0.22407,0.01349 0.669643,-0.445861 z"
       id="path2876"
       transform="scale(0.26458333)" />
    <path
       style="fill:#ffffff;fill-opacity:0;fill-rule:nonzero;stroke-width:0.0447132;stroke-miterlimit:4;stroke-dasharray:none"
       d="m 22.381269,14.673929 c 0.14875,-0.179228 0.326745,-0.389803 0.395543,-0.467945 l 0.125089,-0.142077 3.660714,-0.06974 c 2.013393,-0.03836 4.057478,-0.08245 4.542411,-0.09799 l 0.881696,-0.02825 v 0.447479 0.447478 l -0.63616,0.02672 c -0.349889,0.01469 -2.293527,0.05661 -4.319197,0.09314 -2.02567,0.03653 -3.961477,0.07781 -4.301793,0.09174 l -0.618758,0.02532 z"
       id="path2878"
       transform="scale(0.26458333)" />
    <path
       style="fill:#ffffff;stroke-width:1.00157;stroke-miterlimit:4;stroke-dasharray:none"
       d="m 16.163583,20.760756 c -2.030309,-1.509054 -3.720736,-2.74328 -3.756505,-2.742723 -0.03577,5.68e-4 -2.279706,0.749925 -4.9865281,1.665266 L 2.4990556,21.347555 2.3291491,21.079641 C 2.2357006,20.932288 2.1285242,20.754328 2.0909794,20.684175 2.0294115,20.569134 2.5066377,20.080668 6.9566188,15.703938 9.6702653,13.034961 11.92457,10.854595 11.966184,10.85868 c 0.04161,0.0041 1.45282,0.891128 3.136015,1.971206 1.683194,1.080079 3.106634,1.981539 3.163199,2.003245 0.06822,0.02618 1.968776,-1.082497 5.644476,-3.292651 3.047896,-1.8326643 5.59987,-3.3691456 5.671055,-3.4144031 0.117516,-0.074715 0.159263,-0.051881 0.453701,0.2481574 l 0.324276,0.3304438 -3.250294,4.6088209 c -1.787661,2.534852 -4.135556,5.865987 -5.217546,7.402524 -1.081989,1.536537 -1.982724,2.792525 -2.001632,2.791086 -0.01891,-0.0014 -1.695542,-1.237299 -3.725851,-2.746353 z m 5.330686,-1.087572 c 0.971017,-1.379663 2.883971,-4.094756 4.251009,-6.03354 1.367038,-1.938784 2.472225,-3.53836 2.455972,-3.554614 -0.01625,-0.01625 -2.247893,1.305828 -4.959199,2.93796 l -4.929647,2.967511 -3.100364,-1.989325 c -1.705201,-1.094129 -3.127653,-1.980229 -3.161004,-1.969111 -0.09027,0.03009 -7.8217793,7.637157 -7.8217793,7.695882 0,0.03983 7.4514773,-2.438376 8.1659363,-2.715822 0.173242,-0.06728 0.300375,0.02035 3.693371,2.545528 1.932673,1.438362 3.542362,2.617184 3.577086,2.619606 0.03472,0.0024 0.857603,-1.124412 1.828619,-2.504075 z"
       id="path865"
       transform="scale(0.26458333)" />
  </g>
</svg>
